<svg width="24" height="24" xmlns="http://www.w3.org/2000/svg">

 <g>
  <title>background</title>
  <rect fill="none" id="canvas_background" height="26" width="26" y="-1" x="-1"/>
 </g>
 <g>
  <title>Layer 1</title>
  <path stroke="null" id="svg_1" fill-rule="evenodd" fill="#7655a3" d="m23.939021,11.985968c0,-6.593324 -5.345697,-11.939021 -11.939021,-11.939021c-6.59407,0 -11.939021,5.345697 -11.939021,11.939021c0,6.594071 5.34495,11.939021 11.939021,11.939021c6.593324,0 11.939021,-5.34495 11.939021,-11.939021zm-22.408796,0c0,-5.760578 4.709198,-10.446643 10.469775,-10.446643c5.760578,0 10.446643,4.686066 10.446643,10.446643c0,5.760578 -4.686066,10.446643 -10.446643,10.446643c-5.760578,0 -10.469775,-4.686066 -10.469775,-10.446643z" clip-rule="evenodd"/>
  <path id="svg_2" fill-rule="evenodd" fill="#7655a3" d="m15.288731,19.387039c0.056,-0.134 0.079,-0.276 0.075,-0.419l0,-13.942c0.024,-0.887 -1.07,-1.38 -1.702,-0.742l-6.899,6.999c-0.382,0.386 -0.382,1.043 0,1.429l6.892,6.991c0.493,0.517 1.368,0.344 1.634,-0.316c0.055,-0.134 -0.148,0.367 0,0c0.055,-0.134 -0.148,0.367 0,0c0.055,-0.134 -0.148,0.367 0,0zm-6.408,-7.39l4.494,-4.559l0,9.118l-4.494,-4.559z" clip-rule="evenodd"/>
 </g>
</svg>