<svg width="24" height="24" xmlns="http://www.w3.org/2000/svg">

 <g>
  <title>background</title>
  <rect fill="none" id="canvas_background" height="26" width="26" y="-1" x="-1"/>
 </g>
 <g>
  <title>Layer 1</title>
  <path stroke="null" id="svg_1" fill-rule="evenodd" fill="#7655a3" d="m0,11.985956c0,6.619244 5.366712,11.985956 11.985956,11.985956c6.619993,0 11.985956,-5.366712 11.985956,-11.985956c0,-6.619993 -5.365963,-11.985956 -11.985956,-11.985956c-6.619244,0 -11.985956,5.365963 -11.985956,11.985956zm22.496891,0c0,5.783224 -4.72846,10.487712 -10.510934,10.487712c-5.783224,0 -10.487712,-4.704488 -10.487712,-10.487712c0,-5.783224 4.704488,-10.487712 10.487712,-10.487712c5.783224,0 10.510934,4.704488 10.510934,10.487712z" clip-rule="evenodd"/>
  <path id="svg_2" fill-rule="evenodd" fill="#7655a3" d="m8.617375,4.612961c-0.056,0.134 -0.079,0.276 -0.075,0.419l0,13.942c-0.024,0.887 1.07,1.38 1.702,0.742l6.899,-6.999c0.382,-0.386 0.382,-1.043 0,-1.429l-6.891,-6.991c-0.494,-0.517 -1.369,-0.344 -1.635,0.316c-0.055,0.134 0.148,-0.367 0,0c-0.055,0.134 0.148,-0.367 0,0c-0.055,0.134 0.148,-0.367 0,0zm6.408,7.39l-4.494,4.559l0,-9.118l4.494,4.559z" clip-rule="evenodd"/>
 </g>
</svg>